<svg width="204" height="204" viewBox="0 0 204 204" fill="none" xmlns="http://www.w3.org/2000/svg">
<g clip-path="url(#clip0_2_9)">
<path d="M187.639 69.9021C193.092 67.8586 199.226 70.6143 200.696 76.2484C206.238 97.4863 204.802 120.051 196.436 140.546C186.737 164.31 168.435 183.543 145.182 194.409C121.928 205.275 95.4333 206.975 70.9821 199.169C46.5309 191.364 25.9211 174.628 13.2642 152.299C0.607315 129.97 -3.16619 103.69 2.69649 78.7016C8.55917 53.7134 23.627 31.854 44.8941 17.4842C66.1612 3.11439 92.0641 -2.7094 117.435 1.17464C139.317 4.52444 159.415 14.8827 174.791 30.5466C178.869 34.702 178.083 41.3805 173.529 45.009C168.975 48.6374 162.385 47.8272 158.195 43.7832C146.212 32.2155 130.877 24.5642 114.244 22.0179C94.1181 18.9368 73.5701 23.5566 56.6994 34.9558C39.8288 46.355 27.8758 63.6955 23.2251 83.518C18.5744 103.34 21.5679 124.188 31.6082 141.901C41.6486 159.614 57.9979 172.89 77.3943 179.082C96.7908 185.274 117.809 183.925 136.255 175.305C154.701 166.686 169.219 151.429 176.914 132.578C183.273 116.999 184.584 99.9117 180.815 83.688C179.497 78.0164 182.187 71.9457 187.639 69.9021Z" fill="url(#paint0_linear_2_9)"/>
<path d="M68.9581 111L79.2244 90.6662V90.5046H67.218V85.5455H85.5881V90.5419L75.2844 111H68.9581ZM98.9461 111.621C96.7255 111.621 94.8114 111.095 93.2039 110.043C91.5964 108.982 90.3577 107.462 89.4877 105.482C88.6176 103.493 88.1868 101.102 88.195 98.31C88.2033 95.5176 88.6383 93.1478 89.5001 91.2006C90.3701 89.2451 91.6047 87.7578 93.2039 86.7386C94.8114 85.7112 96.7255 85.1974 98.9461 85.1974C101.167 85.1974 103.081 85.7112 104.688 86.7386C106.304 87.7578 107.547 89.2451 108.417 91.2006C109.287 93.1561 109.718 95.5259 109.71 98.31C109.71 101.111 109.275 103.505 108.405 105.494C107.535 107.483 106.296 109.003 104.688 110.055C103.089 111.099 101.175 111.621 98.9461 111.621ZM98.9461 106.588C100.272 106.588 101.345 105.912 102.165 104.562C102.986 103.203 103.392 101.119 103.383 98.31C103.383 96.4705 103.197 94.9542 102.824 93.761C102.451 92.5595 101.933 91.6647 101.27 91.0763C100.607 90.488 99.8327 90.1939 98.9461 90.1939C97.6286 90.1939 96.5639 90.8609 95.7519 92.195C94.9398 93.5207 94.5297 95.5591 94.5214 98.31C94.5131 100.174 94.6913 101.72 95.0558 102.946C95.4287 104.172 95.9507 105.088 96.6219 105.693C97.2931 106.289 98.0678 106.588 98.9461 106.588ZM127.489 106.227V104.885C127.489 103.841 127.713 102.876 128.16 101.989C128.616 101.102 129.275 100.39 130.137 99.8512C130.998 99.3126 132.051 99.0433 133.294 99.0433C134.561 99.0433 135.626 99.3126 136.488 99.8512C137.358 100.382 138.012 101.09 138.452 101.977C138.899 102.855 139.123 103.824 139.123 104.885V106.227C139.123 107.271 138.899 108.237 138.452 109.123C138.004 110.01 137.345 110.722 136.475 111.261C135.605 111.8 134.545 112.069 133.294 112.069C132.034 112.069 130.974 111.8 130.112 111.261C129.25 110.722 128.595 110.01 128.148 109.123C127.709 108.237 127.489 107.271 127.489 106.227ZM131.454 104.885V106.227C131.454 106.758 131.583 107.267 131.839 107.756C132.105 108.245 132.589 108.489 133.294 108.489C134.014 108.489 134.499 108.253 134.748 107.781C134.996 107.3 135.121 106.782 135.121 106.227V104.885C135.121 104.33 135.001 103.808 134.76 103.319C134.528 102.822 134.039 102.573 133.294 102.573C132.598 102.573 132.117 102.822 131.852 103.319C131.587 103.808 131.454 104.33 131.454 104.885ZM114.29 91.6605V90.3182C114.29 89.2576 114.518 88.2881 114.973 87.4098C115.437 86.5232 116.1 85.8147 116.962 85.2844C117.824 84.7459 118.868 84.4766 120.094 84.4766C121.362 84.4766 122.427 84.7459 123.288 85.2844C124.158 85.8147 124.817 86.5232 125.264 87.4098C125.712 88.2881 125.936 89.2576 125.936 90.3182V91.6605C125.936 92.7211 125.708 93.6906 125.252 94.5689C124.805 95.4472 124.146 96.1474 123.276 96.6694C122.406 97.1914 121.345 97.4524 120.094 97.4524C118.843 97.4524 117.782 97.1873 116.912 96.657C116.05 96.1267 115.396 95.4223 114.948 94.544C114.509 93.6657 114.29 92.7045 114.29 91.6605ZM118.292 90.3182V91.6605C118.292 92.2157 118.42 92.7335 118.677 93.2141C118.942 93.6864 119.415 93.9226 120.094 93.9226C120.823 93.9226 121.308 93.6864 121.548 93.2141C121.797 92.7335 121.921 92.2157 121.921 91.6605V90.3182C121.921 89.763 121.805 89.241 121.573 88.7521C121.341 88.255 120.848 88.0064 120.094 88.0064C119.398 88.0064 118.922 88.2591 118.665 88.7646C118.416 89.27 118.292 89.7879 118.292 90.3182ZM116.166 111L133.666 85.5455H137.06L119.56 111H116.166Z" fill="white"/>
</g>
<defs>
<linearGradient id="paint0_linear_2_9" x1="-12.4348" y1="91.2145" x2="228.124" y2="92.098" gradientUnits="userSpaceOnUse">
<stop stop-color="#AA367C"/>
<stop offset="1" stop-color="#4A2FBD"/>
</linearGradient>
<clipPath id="clip0_2_9">
<rect width="204" height="204" fill="white"/>
</clipPath>
</defs>
</svg>
